<svg width="395" height="13" viewBox="0 0 395 13" fill="none" xmlns="http://www.w3.org/2000/svg">
<line x1="42.0394" y1="3.25104" x2="80.0394" y2="5.25104" stroke="white" stroke-width="1.5"/>
<line x1="83.0203" y1="5.25027" x2="120.02" y2="6.25027" stroke="white" stroke-width="1.5"/>
<line x1="121" y1="6.25" x2="160" y2="6.25" stroke="white" stroke-width="1.5"/>
<line x1="161.04" y1="6.25109" x2="198.04" y2="8.25109" stroke="white" stroke-width="1.5"/>
<line x1="198" y1="9.25" x2="237" y2="9.25" stroke="white" stroke-width="1.5"/>
<line x1="237" y1="9.25" x2="276" y2="9.25" stroke="white" stroke-width="1.5"/>
<line x1="275.98" y1="9.25026" x2="313.98" y2="8.25026" stroke="white" stroke-width="1.5"/>
<line x1="314.981" y1="8.25025" x2="353.981" y2="7.25025" stroke="white" stroke-width="1.5"/>
<line x1="354" y1="7.25" x2="393" y2="7.25" stroke="white" stroke-width="1.5"/>
<circle cx="81" cy="5" r="3" fill="#D9D9D9"/>
<circle cx="120" cy="7" r="3" fill="#D9D9D9"/>
<circle cx="160" cy="7" r="3" fill="#D9D9D9"/>
<circle cx="198" cy="9" r="3" fill="#D9D9D9"/>
<circle cx="237" cy="10" r="3" fill="#D9D9D9"/>
<circle cx="314" cy="9" r="3" fill="#D9D9D9"/>
<circle cx="354" cy="7" r="3" fill="#D9D9D9"/>
<circle cx="392" cy="7" r="3" fill="#D9D9D9"/>
<circle cx="276" cy="10" r="3" fill="#D9D9D9"/>
<line x1="4" y1="3.25" x2="42" y2="3.25" stroke="white" stroke-width="1.5"/>
<circle cx="3" cy="3" r="3" fill="#D9D9D9"/>
<circle cx="42" cy="3" r="3" fill="#D9D9D9"/>
</svg>
